<svg xmlns="http://www.w3.org/2000/svg" viewBox="1 4 158 43"><g fill="#000"><defs><mask id="awp-cutouts" maskUnits="userSpaceOnUse" x="0" y="0" width="180" height="80" style="mask-type:luminance"><rect width="180" height="80" fill="#fff"/><g fill="#000"><path d="M36 31q-5 0-5 4t5 4q4 0 4-4t-4-4z "/></g></mask></defs><g mask="url(#awp-cutouts)"><path d="M3 29q6-1 14 0l5-2h20l8-4h9v-1h36v6l9 1h18v7H92l-4 4H68l-4 3H47l-6-2H29l-3 4H16l-3-3H3z"/><path d="M75 36h13v9H75z"/><path d="M51 10q0-2 2-2h6l4 1h16l4-1h6q2 0 2 2v4q0 2-2 2h-6l-4-1H63l-4 1h-6q-2 0-2-2z"/><rect x="62" y="14" width="2" height="5" rx="0"/><rect x="78" y="14" width="2" height="5" rx="0"/><rect x="93" y="22" width="64" height="3" rx="0"/><path d="M55 23h7v4h-7z M91 26h5v6h-3v-4h-2z"/><rect x="70.2" y="6" width="4" height="4" rx=".7"/></g></g></svg>
