<svg xmlns="http://www.w3.org/2000/svg" viewBox="1 14 155 46"><g fill="#000"><defs><mask id="m4a4-cutouts" maskUnits="userSpaceOnUse" x="0" y="0" width="180" height="80" style="mask-type:luminance"><rect width="180" height="80" fill="#fff"/><g fill="#000"><path d="M65 36v4q0 2 3 2h8q3 0 3-3v-3z"/></g></mask></defs><g mask="url(#m4a4-cutouts)"><path d="M3 23q0-2 2-2h28v4h13v6H31l-3 4h-5l-3 4h-4L6 47H3z"/><path d="M42 24h7v-3h32l4 2h32l3 2v7l-3 2H87l-2 4-5 1H62l-5-4H43z"/><path d="M56 35h9l-3 6-4 11 1 3-2 2h-9l-2-3 7-14z"/><path d="M80 34h11q0 13 4 21l-11 3q-4-13-4-24z"/><path d="M63 35h16v5q-1 4-5 4h-8q-5 0-5-4z "/><rect x="119" y="26" width="24" height="3" rx="0"/><path d="M117 26l3-10h3v10h-2v-5l-2 5z"/><rect x="143" y="24" width="11" height="6" rx="0"/><rect x="52" y="18" width="5" height="4" rx="1"/></g></g></svg>
