<svg xmlns="http://www.w3.org/2000/svg" viewBox="6 13 84 50"><g fill="#000"><defs><mask id="revolver-cutouts" maskUnits="userSpaceOnUse" x="0" y="0" width="180" height="80" style="mask-type:luminance"><rect width="180" height="80" fill="#fff"/><g fill="#000"><path d="M39 33l-3 9 3 3h7q7 0 7-12z"/></g></mask></defs><g mask="url(#revolver-cutouts)"><path d="M17 22l8-7h24l4 3h31l4 3v10H61l-7 6H37l-2 8-5 8-2 8H13q-6 0-4-6l8-17 4-8-5-3z "/><path d="M37 31h19v6q-1 10-9 10h-9l-5-4z "/><rect x="28" y="16" width="22" height="20" rx="4"/></g></g></svg>
